<svg id="d-copy" xmlns="http://www.w3.org/2000/svg" viewBox="0 0 29.413 32.762">
  <defs>
    <style>
      .cls-1 {
        fill: #a8a8a8;
      }
    </style>
  </defs>
  <path id="Path_20" data-name="Path 20" class="cls-1" d="M22.924,74.6H2.244A2.242,2.242,0,0,1,0,72.363V48.244A2.244,2.244,0,0,1,2.244,46h20.68a2.25,2.25,0,0,1,2.244,2.244V72.363A2.254,2.254,0,0,1,22.924,74.6ZM2.715,71.884H22.444V48.715H2.715Z" transform="translate(0 -41.837)"/>
  <path id="Path_21" data-name="Path 21" class="cls-1" d="M68.983,28.146a1.356,1.356,0,0,1-1.358-1.358V2.715H46.358a1.358,1.358,0,0,1,0-2.715h21.3a2.69,2.69,0,0,1,2.688,2.7V26.789A1.356,1.356,0,0,1,68.983,28.146ZM67.653,2.715Z" transform="translate(-40.927)"/>
</svg>
