<svg xmlns="http://www.w3.org/2000/svg" viewBox="0 0 89.338 85.906">
  <defs>
    <style>
      .cls-1 {
        opacity: 0.39;
      }
    </style>
  </defs>
  <g id="d-loading" class="cls-1" transform="translate(0.007 -0.079)">
    <path id="Path_25" data-name="Path 25" d="M4.456,72.768c-.986-.519-1.867-.934-2.723-1.426A3,3,0,0,1,.021,68.255a2.959,2.959,0,0,1,2.2-2.62c3.4-1.089,6.8-2.2,10.219-3.242a3.062,3.062,0,0,1,4.072,2.153c1.063,3.32,2.075,6.665,3.138,9.985a3.038,3.038,0,0,1-.908,3.527,3.078,3.078,0,0,1-3.631.233c-1.037-.545-2.049-1.063-3.4-1.764-.571,2.127-1.245,4.124-1.608,6.147A34.691,34.691,0,0,0,35.293,122.59,34.132,34.132,0,0,0,62.318,118.8a9.988,9.988,0,0,1,3.009-1.426,3.936,3.936,0,0,1,4.435,2.568,4.012,4.012,0,0,1-1.634,4.876,38.325,38.325,0,0,1-11.412,5.369c-16.884,4.513-31.616.648-43.805-11.93A41.015,41.015,0,0,1,1.525,92.764,42.783,42.783,0,0,1,4.3,73.339,4.859,4.859,0,0,0,4.456,72.768Z" transform="translate(0 -46.022)"/>
    <path id="Path_26" data-name="Path 26" d="M129.489,54.731a30.652,30.652,0,0,0,2.023-9.441A34.719,34.719,0,0,0,105.706,9.421a33.9,33.9,0,0,0-27.466,4.2c-1.141.7-2.256,1.478-3.709,1.271a4.225,4.225,0,0,1-3.605-3.268A3.937,3.937,0,0,1,72.872,7.32a61.247,61.247,0,0,1,8.611-4.409,42.83,42.83,0,0,1,56.254,27.181,41.97,41.97,0,0,1-.389,27.206c-.13.389-.285.8-.467,1.349,1.011.519,2,1.063,2.983,1.556a3.051,3.051,0,0,1,1.919,3.086,3.162,3.162,0,0,1-2.49,2.827c-3.086.96-6.2,1.815-9.233,2.931-3.138,1.141-4.461-.571-5.187-2.8-.934-2.853-1.712-5.784-2.62-8.637-.493-1.53-.545-2.931.778-4.02s2.723-.8,4.1,0C127.881,53.953,128.607,54.29,129.489,54.731Z" transform="translate(-52.466 0)"/>
  </g>
</svg>
